<svg width="81" height="55" viewBox="0 0 81 55" fill="none" xmlns="http://www.w3.org/2000/svg">
<path d="M62.2657 44.4124C58.7581 48.9097 53.9389 52.2052 48.4755 53.8425C43.0121 55.4798 37.1748 55.3779 31.7719 53.5509C26.369 51.7239 21.6678 48.2622 18.3193 43.6451C14.9709 39.0281 13.1408 33.4841 13.0825 27.781C13.0242 22.0778 14.7407 16.4977 17.9941 11.8131C21.2475 7.12864 25.877 3.57159 31.2414 1.63456C36.6059 -0.302465 42.4399 -0.523638 47.9356 1.00167C53.4313 2.52698 58.3168 5.72331 61.9155 10.148L54.6618 16.0477C52.2866 13.1274 49.0622 11.0178 45.4351 10.0111C41.8079 9.0044 37.9574 9.15037 34.4169 10.4288C30.8764 11.7073 27.8209 14.0549 25.6737 17.1467C23.5264 20.2384 22.3936 23.9214 22.432 27.6855C22.4705 31.4495 23.6783 35.1085 25.8883 38.1558C28.0983 41.203 31.2011 43.4878 34.767 44.6936C38.333 45.8994 42.1856 45.9667 45.7914 44.8861C49.3973 43.8054 52.5779 41.6304 54.8929 38.6622L62.2657 44.4124Z" fill="#939393"/>
<circle cx="40.4324" cy="27.3513" r="11.8919" fill="#865757"/>
<circle cx="68.973" cy="27.3513" r="11.8919" fill="#728657"/>
<circle cx="11.8919" cy="27.3513" r="11.8919" fill="#576F86"/>
</svg>
